<svg xmlns="http://www.w3.org/2000/svg">

  <!-- Instagram -->
  <symbol id="icon-instagram" viewBox="0 0 24 24">
    <path d="M7 2h10a5 5 0 0 1 5 5v10a5 5 0 0 1-5 5H7a5 5 0 0 1-5-5V7a5 5 0 0 1 5-5zm10 2H7a3 3 0 0 0-3 3v10a3 3 0 0 0 3 3h10a3 3 0 0 0 3-3V7a3 3 0 0 0-3-3zm-5 3a5 5 0 1 1 0 10 5 5 0 0 1 0-10zm0 2a3 3 0 1 0 0 6 3 3 0 0 0 0-6zm5.5-.9a1.1 1.1 0 1 1 0 2.2 1.1 1.1 0 0 1 0-2.2z"/>
  </symbol>

  <!-- Dribbble -->
  <symbol id="icon-dribbble" viewBox="0 0 24 24">
    <path d="M12 2C6.5 2 2 6.5 2 12s4.5 10 10 10 10-4.5 10-10S17.5 2 12 2zm6.9 4.6c1.3 1.5 2.1 3.4 2.1 5.4-.3-.1-2.9-.6-5.7-.2-.2-.5-.4-1-.6-1.5 2.2-.9 3.7-2.2 4.2-3.7zM12 4c2 0 3.8.7 5.2 1.9-.4 1.2-1.8 2.4-3.8 3.1-1.2-2.2-2.5-4-3.2-4.9.6-.1 1.2-.1 1.8-.1zM7.4 5.2c.7.9 2 2.6 3.2 4.7-2.8.7-5.2.7-6.1.7.7-2.3 2.2-4.2 4-5.4zM4 12v-.3c1 .1 4 .1 7.1-.9.2.4.4.9.6 1.3-.1 0-.2 0-.3.1-3.1 1-4.7 3.8-5.1 4.6C5 15.7 4 13.9 4 12zm8 8c-1.7 0-3.3-.5-4.6-1.4.3-.7 1.6-3.2 4.8-4.3.6 1.6 1 3.3 1.2 5-.5.1-.9.2-1.4.2zm3.3-.8c-.2-1.4-.5-2.9-1.1-4.5 2.6-.4 4.9.2 5.2.3-.8 2.1-2.3 3.8-4.1 4.2z"/>
  </symbol>

  <!-- X (Twitter) -->
  <symbol id="icon-x" viewBox="0 0 24 24">
    <path d="M18.9 2H22l-6.8 7.8L23 22h-6.2l-4.8-6.2L6.5 22H3.4l7.3-8.4L1 2h6.3l4.4 5.7L18.9 2z"/>
  </symbol>

  <!-- YouTube -->
  <symbol id="icon-youtube" viewBox="0 0 24 24">
    <path d="M23.5 6.2a2.8 2.8 0 0 0-1.9-2C19.7 4 12 4 12 4s-7.7 0-9.6.2A2.8 2.8 0 0 0 .5 6.2 29.4 29.4 0 0 0 0 12a29.4 29.4 0 0 0 .5 5.8 2.8 2.8 0 0 0 1.9 2c1.9.2 9.6.2 9.6.2s7.7 0 9.6-.2a2.8 2.8 0 0 0 1.9-2A29.4 29.4 0 0 0 24 12a29.4 29.4 0 0 0-.5-5.8zM9.5 15.5V8.5l6 3.5-6 3.5z"/>
  </symbol>

</svg>
